<mxfile host="65bd71144e">
    <diagram id="yGMjOtynLAjy5uRdQ5Lb" name="Page-1">
        <mxGraphModel dx="1818" dy="858" grid="1" gridSize="10" guides="1" tooltips="1" connect="1" arrows="1" fold="1" page="1" pageScale="1" pageWidth="4681" pageHeight="3300" math="1" shadow="0">
            <root>
                <mxCell id="0"/>
                <mxCell id="1" parent="0"/>
                <mxCell id="2" value="" style="ellipse;whiteSpace=wrap;html=1;aspect=fixed;fillColor=none;strokeColor=#6c8ebf;strokeWidth=3;" vertex="1" parent="1">
                    <mxGeometry x="400" y="40" width="40" height="40" as="geometry"/>
                </mxCell>
                <mxCell id="17" style="edgeStyle=none;html=1;entryX=0;entryY=1;entryDx=0;entryDy=0;endArrow=none;endFill=0;fillColor=#dae8fc;strokeColor=#6c8ebf;strokeWidth=3;" edge="1" parent="1" source="3" target="2">
                    <mxGeometry relative="1" as="geometry"/>
                </mxCell>
                <mxCell id="3" value="" style="ellipse;whiteSpace=wrap;html=1;aspect=fixed;fillColor=none;strokeColor=#6c8ebf;strokeWidth=3;" vertex="1" parent="1">
                    <mxGeometry x="280" y="120" width="40" height="40" as="geometry"/>
                </mxCell>
                <mxCell id="18" style="edgeStyle=none;html=1;entryX=1;entryY=1;entryDx=0;entryDy=0;endArrow=none;endFill=0;" edge="1" parent="1" source="4" target="2">
                    <mxGeometry relative="1" as="geometry"/>
                </mxCell>
                <mxCell id="4" value="" style="ellipse;whiteSpace=wrap;html=1;aspect=fixed;" vertex="1" parent="1">
                    <mxGeometry x="520" y="120" width="40" height="40" as="geometry"/>
                </mxCell>
                <mxCell id="19" style="edgeStyle=none;html=1;entryX=0;entryY=1;entryDx=0;entryDy=0;endArrow=none;endFill=0;fillColor=#dae8fc;strokeColor=#6c8ebf;strokeWidth=3;" edge="1" parent="1" source="5" target="3">
                    <mxGeometry relative="1" as="geometry"/>
                </mxCell>
                <mxCell id="5" value="" style="ellipse;whiteSpace=wrap;html=1;aspect=fixed;strokeWidth=3;fillColor=none;strokeColor=#6c8ebf;" vertex="1" parent="1">
                    <mxGeometry x="220" y="200" width="40" height="40" as="geometry"/>
                </mxCell>
                <mxCell id="20" style="edgeStyle=none;html=1;entryX=1;entryY=1;entryDx=0;entryDy=0;endArrow=none;endFill=0;" edge="1" parent="1" source="6" target="3">
                    <mxGeometry relative="1" as="geometry"/>
                </mxCell>
                <mxCell id="6" value="" style="ellipse;whiteSpace=wrap;html=1;aspect=fixed;" vertex="1" parent="1">
                    <mxGeometry x="340" y="200" width="40" height="40" as="geometry"/>
                </mxCell>
                <mxCell id="21" style="edgeStyle=none;html=1;entryX=0;entryY=1;entryDx=0;entryDy=0;endArrow=none;endFill=0;" edge="1" parent="1" target="4">
                    <mxGeometry relative="1" as="geometry">
                        <mxPoint x="491.4111560861968" y="203.5748510880502" as="sourcePoint"/>
                    </mxGeometry>
                </mxCell>
                <mxCell id="22" style="edgeStyle=none;html=1;entryX=1;entryY=1;entryDx=0;entryDy=0;endArrow=none;endFill=0;" edge="1" parent="1" source="8" target="4">
                    <mxGeometry relative="1" as="geometry"/>
                </mxCell>
                <mxCell id="8" value="" style="ellipse;whiteSpace=wrap;html=1;aspect=fixed;" vertex="1" parent="1">
                    <mxGeometry x="580" y="200" width="40" height="40" as="geometry"/>
                </mxCell>
                <mxCell id="23" style="edgeStyle=none;html=1;entryX=0;entryY=1;entryDx=0;entryDy=0;endArrow=none;endFill=0;" edge="1" parent="1" source="9" target="5">
                    <mxGeometry relative="1" as="geometry"/>
                </mxCell>
                <mxCell id="9" value="$$w_1$$" style="ellipse;whiteSpace=wrap;html=1;aspect=fixed;fillColor=#dae8fc;strokeColor=#6c8ebf;" vertex="1" parent="1">
                    <mxGeometry x="190" y="280" width="40" height="40" as="geometry"/>
                </mxCell>
                <mxCell id="24" style="edgeStyle=none;html=1;entryX=1;entryY=1;entryDx=0;entryDy=0;endArrow=none;endFill=0;strokeWidth=3;fillColor=#dae8fc;strokeColor=#6c8ebf;" edge="1" parent="1" source="10" target="5">
                    <mxGeometry relative="1" as="geometry"/>
                </mxCell>
                <mxCell id="10" value="&lt;span style=&quot;color: rgb(0, 0, 0);&quot;&gt;$$w_2$$&lt;/span&gt;" style="ellipse;whiteSpace=wrap;html=1;aspect=fixed;fillColor=#dae8fc;strokeColor=#6c8ebf;strokeWidth=3;" vertex="1" parent="1">
                    <mxGeometry x="250" y="280" width="40" height="40" as="geometry"/>
                </mxCell>
                <mxCell id="25" style="edgeStyle=none;html=1;entryX=0;entryY=1;entryDx=0;entryDy=0;endArrow=none;endFill=0;" edge="1" parent="1" source="11" target="6">
                    <mxGeometry relative="1" as="geometry"/>
                </mxCell>
                <mxCell id="11" value="&lt;span style=&quot;color: rgb(0, 0, 0);&quot;&gt;$$w_3$$&lt;/span&gt;" style="ellipse;whiteSpace=wrap;html=1;aspect=fixed;fillColor=#dae8fc;strokeColor=#6c8ebf;" vertex="1" parent="1">
                    <mxGeometry x="310" y="280" width="40" height="40" as="geometry"/>
                </mxCell>
                <mxCell id="26" style="edgeStyle=none;html=1;entryX=1;entryY=1;entryDx=0;entryDy=0;endArrow=none;endFill=0;" edge="1" parent="1" source="12" target="6">
                    <mxGeometry relative="1" as="geometry"/>
                </mxCell>
                <mxCell id="12" value="&lt;span style=&quot;color: rgb(0, 0, 0);&quot;&gt;$$w_4$$&lt;/span&gt;" style="ellipse;whiteSpace=wrap;html=1;aspect=fixed;fillColor=#dae8fc;strokeColor=#6c8ebf;" vertex="1" parent="1">
                    <mxGeometry x="370" y="280" width="40" height="40" as="geometry"/>
                </mxCell>
                <mxCell id="29" style="edgeStyle=none;html=1;entryX=0;entryY=1;entryDx=0;entryDy=0;endArrow=none;endFill=0;" edge="1" parent="1" target="8">
                    <mxGeometry relative="1" as="geometry">
                        <mxPoint x="574.5121679124402" y="280.5156385599174" as="sourcePoint"/>
                    </mxGeometry>
                </mxCell>
                <mxCell id="30" style="edgeStyle=none;html=1;entryX=1;entryY=1;entryDx=0;entryDy=0;endArrow=none;endFill=0;" edge="1" parent="1" source="16" target="8">
                    <mxGeometry relative="1" as="geometry"/>
                </mxCell>
                <mxCell id="16" value="&lt;span style=&quot;color: rgb(0, 0, 0);&quot;&gt;$$w_n$$&lt;/span&gt;" style="ellipse;whiteSpace=wrap;html=1;aspect=fixed;fillColor=#dae8fc;strokeColor=#6c8ebf;" vertex="1" parent="1">
                    <mxGeometry x="610" y="280" width="40" height="40" as="geometry"/>
                </mxCell>
                <mxCell id="31" value="â€¦" style="text;html=1;align=center;verticalAlign=middle;whiteSpace=wrap;rounded=0;fontSize=80;fontFamily=Comic Sans MS;" vertex="1" parent="1">
                    <mxGeometry x="460" y="210" width="80" height="110" as="geometry"/>
                </mxCell>
                <mxCell id="33" value="&lt;span style=&quot;color: rgb(0, 0, 0); font-family: Helvetica; font-size: 12px; font-style: normal; font-variant-ligatures: normal; font-variant-caps: normal; font-weight: 400; letter-spacing: normal; orphans: 2; text-indent: 0px; text-transform: none; widows: 2; word-spacing: 0px; -webkit-text-stroke-width: 0px; white-space: normal; background-color: rgb(251, 251, 251); text-decoration-thickness: initial; text-decoration-style: initial; text-decoration-color: initial; float: none; display: inline !important;&quot;&gt;$$n(w_2,1)$$&lt;/span&gt;" style="text;whiteSpace=wrap;html=1;verticalAlign=middle;align=center;" vertex="1" parent="1">
                    <mxGeometry x="320" y="30" width="100" height="30" as="geometry"/>
                </mxCell>
                <mxCell id="34" value="&lt;span style=&quot;color: rgb(0, 0, 0); font-family: Helvetica; font-size: 12px; font-style: normal; font-variant-ligatures: normal; font-variant-caps: normal; font-weight: 400; letter-spacing: normal; orphans: 2; text-indent: 0px; text-transform: none; widows: 2; word-spacing: 0px; -webkit-text-stroke-width: 0px; white-space: normal; background-color: rgb(251, 251, 251); text-decoration-thickness: initial; text-decoration-style: initial; text-decoration-color: initial; float: none; display: inline !important;&quot;&gt;$$n(w_2,2)$$&lt;/span&gt;" style="text;whiteSpace=wrap;html=1;verticalAlign=middle;align=center;" vertex="1" parent="1">
                    <mxGeometry x="210" y="100" width="100" height="30" as="geometry"/>
                </mxCell>
                <mxCell id="35" value="&lt;span style=&quot;color: rgb(0, 0, 0); font-family: Helvetica; font-size: 12px; font-style: normal; font-variant-ligatures: normal; font-variant-caps: normal; font-weight: 400; letter-spacing: normal; orphans: 2; text-indent: 0px; text-transform: none; widows: 2; word-spacing: 0px; -webkit-text-stroke-width: 0px; white-space: normal; background-color: rgb(251, 251, 251); text-decoration-thickness: initial; text-decoration-style: initial; text-decoration-color: initial; float: none; display: inline !important;&quot;&gt;$$n(w_2,3)$$&lt;/span&gt;" style="text;whiteSpace=wrap;html=1;verticalAlign=middle;align=center;" vertex="1" parent="1">
                    <mxGeometry x="150" y="180" width="100" height="30" as="geometry"/>
                </mxCell>
                <mxCell id="36" value="" style="ellipse;whiteSpace=wrap;html=1;aspect=fixed;strokeWidth=1;strokeColor=default;" vertex="1" parent="1">
                    <mxGeometry x="380" y="400" width="40" height="40" as="geometry"/>
                </mxCell>
                <mxCell id="37" style="edgeStyle=none;html=1;entryX=0;entryY=1;entryDx=0;entryDy=0;endArrow=none;endFill=0;strokeWidth=1;strokeColor=default;" edge="1" parent="1" source="38" target="36">
                    <mxGeometry relative="1" as="geometry"/>
                </mxCell>
                <mxCell id="38" value="" style="ellipse;whiteSpace=wrap;html=1;aspect=fixed;strokeWidth=1;strokeColor=default;" vertex="1" parent="1">
                    <mxGeometry x="260" y="480" width="40" height="40" as="geometry"/>
                </mxCell>
                <mxCell id="39" style="edgeStyle=none;html=1;entryX=1;entryY=1;entryDx=0;entryDy=0;endArrow=none;endFill=0;strokeColor=default;strokeWidth=1;" edge="1" parent="1" source="40" target="36">
                    <mxGeometry relative="1" as="geometry"/>
                </mxCell>
                <mxCell id="40" value="" style="ellipse;whiteSpace=wrap;html=1;aspect=fixed;strokeColor=default;strokeWidth=1;" vertex="1" parent="1">
                    <mxGeometry x="500" y="480" width="40" height="40" as="geometry"/>
                </mxCell>
                <mxCell id="41" style="edgeStyle=none;html=1;entryX=0;entryY=1;entryDx=0;entryDy=0;endArrow=none;endFill=0;strokeWidth=1;strokeColor=default;" edge="1" parent="1" source="42" target="38">
                    <mxGeometry relative="1" as="geometry"/>
                </mxCell>
                <mxCell id="42" value="9" style="ellipse;whiteSpace=wrap;html=1;aspect=fixed;strokeWidth=1;strokeColor=default;" vertex="1" parent="1">
                    <mxGeometry x="200" y="560" width="40" height="40" as="geometry"/>
                </mxCell>
                <mxCell id="43" style="edgeStyle=none;html=1;entryX=1;entryY=1;entryDx=0;entryDy=0;endArrow=none;endFill=0;strokeColor=default;strokeWidth=1;" edge="1" parent="1" source="44" target="38">
                    <mxGeometry relative="1" as="geometry"/>
                </mxCell>
                <mxCell id="44" value="8" style="ellipse;whiteSpace=wrap;html=1;aspect=fixed;strokeColor=default;strokeWidth=1;" vertex="1" parent="1">
                    <mxGeometry x="320" y="560" width="40" height="40" as="geometry"/>
                </mxCell>
                <mxCell id="45" style="edgeStyle=none;html=1;entryX=0;entryY=1;entryDx=0;entryDy=0;endArrow=none;endFill=0;strokeColor=default;strokeWidth=1;" edge="1" parent="1" target="40">
                    <mxGeometry relative="1" as="geometry">
                        <mxPoint x="471.4111560861968" y="563.5748510880502" as="sourcePoint"/>
                    </mxGeometry>
                </mxCell>
                <mxCell id="46" style="edgeStyle=none;html=1;entryX=1;entryY=1;entryDx=0;entryDy=0;endArrow=none;endFill=0;strokeColor=default;strokeWidth=1;" edge="1" parent="1" source="47" target="40">
                    <mxGeometry relative="1" as="geometry"/>
                </mxCell>
                <mxCell id="47" value="" style="ellipse;whiteSpace=wrap;html=1;aspect=fixed;strokeColor=default;strokeWidth=1;" vertex="1" parent="1">
                    <mxGeometry x="560" y="560" width="40" height="40" as="geometry"/>
                </mxCell>
                <mxCell id="56" style="edgeStyle=none;html=1;entryX=0;entryY=1;entryDx=0;entryDy=0;endArrow=none;endFill=0;strokeColor=default;strokeWidth=1;" edge="1" parent="1" target="47">
                    <mxGeometry relative="1" as="geometry">
                        <mxPoint x="554.5121679124402" y="640.5156385599174" as="sourcePoint"/>
                    </mxGeometry>
                </mxCell>
                <mxCell id="57" style="edgeStyle=none;html=1;entryX=1;entryY=1;entryDx=0;entryDy=0;endArrow=none;endFill=0;strokeColor=default;strokeWidth=1;" edge="1" parent="1" source="58" target="47">
                    <mxGeometry relative="1" as="geometry"/>
                </mxCell>
                <mxCell id="58" value="1" style="ellipse;whiteSpace=wrap;html=1;aspect=fixed;strokeColor=default;strokeWidth=1;" vertex="1" parent="1">
                    <mxGeometry x="590" y="640" width="40" height="40" as="geometry"/>
                </mxCell>
                <mxCell id="63" value="7" style="ellipse;whiteSpace=wrap;html=1;aspect=fixed;strokeColor=default;strokeWidth=1;" vertex="1" parent="1">
                    <mxGeometry x="450" y="560" width="40" height="40" as="geometry"/>
                </mxCell>
                <mxCell id="64" value="3" style="ellipse;whiteSpace=wrap;html=1;aspect=fixed;strokeColor=default;strokeWidth=1;" vertex="1" parent="1">
                    <mxGeometry x="530" y="640" width="40" height="40" as="geometry"/>
                </mxCell>
                <mxCell id="65" value="1" style="text;html=1;align=center;verticalAlign=middle;whiteSpace=wrap;rounded=0;" vertex="1" parent="1">
                    <mxGeometry x="320" y="430" width="30" height="30" as="geometry"/>
                </mxCell>
                <mxCell id="66" value="1" style="text;html=1;align=center;verticalAlign=middle;whiteSpace=wrap;rounded=0;" vertex="1" parent="1">
                    <mxGeometry x="450" y="430" width="30" height="30" as="geometry"/>
                </mxCell>
                <mxCell id="67" value="2" style="text;html=1;align=center;verticalAlign=middle;whiteSpace=wrap;rounded=0;" vertex="1" parent="1">
                    <mxGeometry x="210" y="520" width="30" height="30" as="geometry"/>
                </mxCell>
                <mxCell id="68" value="2" style="text;html=1;align=center;verticalAlign=middle;whiteSpace=wrap;rounded=0;" vertex="1" parent="1">
                    <mxGeometry x="310" y="520" width="30" height="30" as="geometry"/>
                </mxCell>
                <mxCell id="69" value="2" style="text;html=1;align=center;verticalAlign=middle;whiteSpace=wrap;rounded=0;" vertex="1" parent="1">
                    <mxGeometry x="455" y="520" width="30" height="30" as="geometry"/>
                </mxCell>
                <mxCell id="70" value="2" style="text;html=1;align=center;verticalAlign=middle;whiteSpace=wrap;rounded=0;" vertex="1" parent="1">
                    <mxGeometry x="555" y="520" width="30" height="30" as="geometry"/>
                </mxCell>
                <mxCell id="71" value="3" style="text;html=1;align=center;verticalAlign=middle;whiteSpace=wrap;rounded=0;" vertex="1" parent="1">
                    <mxGeometry x="530" y="600" width="30" height="30" as="geometry"/>
                </mxCell>
                <mxCell id="72" value="3" style="text;html=1;align=center;verticalAlign=middle;whiteSpace=wrap;rounded=0;" vertex="1" parent="1">
                    <mxGeometry x="595" y="600" width="30" height="30" as="geometry"/>
                </mxCell>
                <mxCell id="73" value="A:5" style="ellipse;whiteSpace=wrap;html=1;aspect=fixed;strokeColor=default;strokeWidth=1;" vertex="1" parent="1">
                    <mxGeometry x="60" y="760" width="40" height="40" as="geometry"/>
                </mxCell>
                <mxCell id="74" value="B:2" style="ellipse;whiteSpace=wrap;html=1;aspect=fixed;strokeColor=default;strokeWidth=1;" vertex="1" parent="1">
                    <mxGeometry x="120" y="760" width="40" height="40" as="geometry"/>
                </mxCell>
                <mxCell id="75" value="E:2" style="ellipse;whiteSpace=wrap;html=1;aspect=fixed;strokeColor=default;strokeWidth=1;" vertex="1" parent="1">
                    <mxGeometry x="180" y="760" width="40" height="40" as="geometry"/>
                </mxCell>
                <mxCell id="76" value="C:1" style="ellipse;whiteSpace=wrap;html=1;aspect=fixed;strokeColor=default;strokeWidth=1;" vertex="1" parent="1">
                    <mxGeometry x="240" y="760" width="40" height="40" as="geometry"/>
                </mxCell>
                <mxCell id="77" value="D:1" style="ellipse;whiteSpace=wrap;html=1;aspect=fixed;strokeColor=default;strokeWidth=1;" vertex="1" parent="1">
                    <mxGeometry x="300" y="760" width="40" height="40" as="geometry"/>
                </mxCell>
                <mxCell id="78" value="C:1" style="ellipse;whiteSpace=wrap;html=1;aspect=fixed;strokeColor=default;strokeWidth=1;" vertex="1" parent="1">
                    <mxGeometry x="580" y="820" width="40" height="40" as="geometry"/>
                </mxCell>
                <mxCell id="79" value="D:1" style="ellipse;whiteSpace=wrap;html=1;aspect=fixed;strokeColor=default;strokeWidth=1;" vertex="1" parent="1">
                    <mxGeometry x="640" y="820" width="40" height="40" as="geometry"/>
                </mxCell>
                <mxCell id="80" value="2" style="ellipse;whiteSpace=wrap;html=1;aspect=fixed;strokeColor=default;strokeWidth=1;" vertex="1" parent="1">
                    <mxGeometry x="610" y="760" width="40" height="40" as="geometry"/>
                </mxCell>
                <mxCell id="81" value="A:5" style="ellipse;whiteSpace=wrap;html=1;aspect=fixed;strokeColor=default;strokeWidth=1;" vertex="1" parent="1">
                    <mxGeometry x="400" y="760" width="40" height="40" as="geometry"/>
                </mxCell>
                <mxCell id="82" value="B:2" style="ellipse;whiteSpace=wrap;html=1;aspect=fixed;strokeColor=default;strokeWidth=1;" vertex="1" parent="1">
                    <mxGeometry x="460" y="760" width="40" height="40" as="geometry"/>
                </mxCell>
                <mxCell id="83" value="E:2" style="ellipse;whiteSpace=wrap;html=1;aspect=fixed;strokeColor=default;strokeWidth=1;" vertex="1" parent="1">
                    <mxGeometry x="520" y="760" width="40" height="40" as="geometry"/>
                </mxCell>
                <mxCell id="112" style="edgeStyle=none;html=1;entryX=0;entryY=1;entryDx=0;entryDy=0;endArrow=none;endFill=0;" edge="1" parent="1" source="84" target="86">
                    <mxGeometry relative="1" as="geometry"/>
                </mxCell>
                <mxCell id="84" value="C:1" style="ellipse;whiteSpace=wrap;html=1;aspect=fixed;strokeColor=default;strokeWidth=1;" vertex="1" parent="1">
                    <mxGeometry x="240" y="960" width="40" height="40" as="geometry"/>
                </mxCell>
                <mxCell id="113" style="edgeStyle=none;html=1;entryX=1;entryY=1;entryDx=0;entryDy=0;endArrow=none;endFill=0;" edge="1" parent="1" source="85" target="86">
                    <mxGeometry relative="1" as="geometry"/>
                </mxCell>
                <mxCell id="85" value="D:1" style="ellipse;whiteSpace=wrap;html=1;aspect=fixed;strokeColor=default;strokeWidth=1;" vertex="1" parent="1">
                    <mxGeometry x="300" y="960" width="40" height="40" as="geometry"/>
                </mxCell>
                <mxCell id="86" value="2" style="ellipse;whiteSpace=wrap;html=1;aspect=fixed;strokeColor=default;strokeWidth=1;" vertex="1" parent="1">
                    <mxGeometry x="270" y="900" width="40" height="40" as="geometry"/>
                </mxCell>
                <mxCell id="87" value="A:5" style="ellipse;whiteSpace=wrap;html=1;aspect=fixed;strokeColor=default;strokeWidth=1;" vertex="1" parent="1">
                    <mxGeometry x="60" y="900" width="40" height="40" as="geometry"/>
                </mxCell>
                <mxCell id="110" style="edgeStyle=none;html=1;entryX=0;entryY=1;entryDx=0;entryDy=0;endArrow=none;endFill=0;" edge="1" parent="1" source="88" target="90">
                    <mxGeometry relative="1" as="geometry"/>
                </mxCell>
                <mxCell id="88" value="B:2" style="ellipse;whiteSpace=wrap;html=1;aspect=fixed;strokeColor=default;strokeWidth=1;" vertex="1" parent="1">
                    <mxGeometry x="120" y="960" width="40" height="40" as="geometry"/>
                </mxCell>
                <mxCell id="111" style="edgeStyle=none;html=1;entryX=1;entryY=1;entryDx=0;entryDy=0;endArrow=none;endFill=0;" edge="1" parent="1" source="89" target="90">
                    <mxGeometry relative="1" as="geometry"/>
                </mxCell>
                <mxCell id="89" value="E:2" style="ellipse;whiteSpace=wrap;html=1;aspect=fixed;strokeColor=default;strokeWidth=1;" vertex="1" parent="1">
                    <mxGeometry x="180" y="960" width="40" height="40" as="geometry"/>
                </mxCell>
                <mxCell id="90" value="4" style="ellipse;whiteSpace=wrap;html=1;aspect=fixed;strokeColor=default;strokeWidth=1;" vertex="1" parent="1">
                    <mxGeometry x="150" y="900" width="40" height="40" as="geometry"/>
                </mxCell>
                <mxCell id="116" style="edgeStyle=none;html=1;entryX=0;entryY=1;entryDx=0;entryDy=0;endArrow=none;endFill=0;" edge="1" parent="1" source="91" target="93">
                    <mxGeometry relative="1" as="geometry"/>
                </mxCell>
                <mxCell id="91" value="C:1" style="ellipse;whiteSpace=wrap;html=1;aspect=fixed;strokeColor=default;strokeWidth=1;" vertex="1" parent="1">
                    <mxGeometry x="580" y="1015" width="40" height="40" as="geometry"/>
                </mxCell>
                <mxCell id="117" style="edgeStyle=none;html=1;entryX=1;entryY=1;entryDx=0;entryDy=0;endArrow=none;endFill=0;" edge="1" parent="1" source="92" target="93">
                    <mxGeometry relative="1" as="geometry"/>
                </mxCell>
                <mxCell id="92" value="D:1" style="ellipse;whiteSpace=wrap;html=1;aspect=fixed;strokeColor=default;strokeWidth=1;" vertex="1" parent="1">
                    <mxGeometry x="640" y="1015" width="40" height="40" as="geometry"/>
                </mxCell>
                <mxCell id="118" style="edgeStyle=none;html=1;entryX=1;entryY=1;entryDx=0;entryDy=0;endArrow=none;endFill=0;" edge="1" parent="1" source="93" target="98">
                    <mxGeometry relative="1" as="geometry"/>
                </mxCell>
                <mxCell id="93" value="2" style="ellipse;whiteSpace=wrap;html=1;aspect=fixed;strokeColor=default;strokeWidth=1;" vertex="1" parent="1">
                    <mxGeometry x="610" y="955" width="40" height="40" as="geometry"/>
                </mxCell>
                <mxCell id="94" value="A:5" style="ellipse;whiteSpace=wrap;html=1;aspect=fixed;strokeColor=default;strokeWidth=1;" vertex="1" parent="1">
                    <mxGeometry x="400" y="905" width="40" height="40" as="geometry"/>
                </mxCell>
                <mxCell id="114" style="edgeStyle=none;html=1;entryX=0;entryY=1;entryDx=0;entryDy=0;endArrow=none;endFill=0;" edge="1" parent="1" source="95" target="97">
                    <mxGeometry relative="1" as="geometry"/>
                </mxCell>
                <mxCell id="95" value="B:2" style="ellipse;whiteSpace=wrap;html=1;aspect=fixed;strokeColor=default;strokeWidth=1;" vertex="1" parent="1">
                    <mxGeometry x="460" y="1015" width="40" height="40" as="geometry"/>
                </mxCell>
                <mxCell id="115" style="edgeStyle=none;html=1;entryX=1;entryY=1;entryDx=0;entryDy=0;endArrow=none;endFill=0;" edge="1" parent="1" source="96" target="97">
                    <mxGeometry relative="1" as="geometry"/>
                </mxCell>
                <mxCell id="96" value="E:2" style="ellipse;whiteSpace=wrap;html=1;aspect=fixed;strokeColor=default;strokeWidth=1;" vertex="1" parent="1">
                    <mxGeometry x="520" y="1015" width="40" height="40" as="geometry"/>
                </mxCell>
                <mxCell id="119" style="edgeStyle=none;html=1;entryX=0;entryY=1;entryDx=0;entryDy=0;endArrow=none;endFill=0;" edge="1" parent="1" source="97" target="98">
                    <mxGeometry relative="1" as="geometry"/>
                </mxCell>
                <mxCell id="97" value="4" style="ellipse;whiteSpace=wrap;html=1;aspect=fixed;strokeColor=default;strokeWidth=1;" vertex="1" parent="1">
                    <mxGeometry x="490" y="955" width="40" height="40" as="geometry"/>
                </mxCell>
                <mxCell id="98" value="6" style="ellipse;whiteSpace=wrap;html=1;aspect=fixed;strokeColor=default;strokeWidth=1;" vertex="1" parent="1">
                    <mxGeometry x="550" y="905" width="40" height="40" as="geometry"/>
                </mxCell>
                <mxCell id="122" style="edgeStyle=none;html=1;entryX=0;entryY=1;entryDx=0;entryDy=0;endArrow=none;endFill=0;" edge="1" parent="1" source="99" target="101">
                    <mxGeometry relative="1" as="geometry"/>
                </mxCell>
                <mxCell id="99" value="C:1" style="ellipse;whiteSpace=wrap;html=1;aspect=fixed;strokeColor=default;strokeWidth=1;" vertex="1" parent="1">
                    <mxGeometry x="415" y="1260" width="40" height="40" as="geometry"/>
                </mxCell>
                <mxCell id="123" style="edgeStyle=none;html=1;entryX=1;entryY=1;entryDx=0;entryDy=0;endArrow=none;endFill=0;" edge="1" parent="1" source="100" target="101">
                    <mxGeometry relative="1" as="geometry"/>
                </mxCell>
                <mxCell id="100" value="D:1" style="ellipse;whiteSpace=wrap;html=1;aspect=fixed;strokeColor=default;strokeWidth=1;" vertex="1" parent="1">
                    <mxGeometry x="475" y="1260" width="40" height="40" as="geometry"/>
                </mxCell>
                <mxCell id="125" style="edgeStyle=none;html=1;entryX=1;entryY=1;entryDx=0;entryDy=0;endArrow=none;endFill=0;" edge="1" parent="1" source="101" target="106">
                    <mxGeometry relative="1" as="geometry"/>
                </mxCell>
                <mxCell id="101" value="2" style="ellipse;whiteSpace=wrap;html=1;aspect=fixed;strokeColor=default;strokeWidth=1;" vertex="1" parent="1">
                    <mxGeometry x="445" y="1200" width="40" height="40" as="geometry"/>
                </mxCell>
                <mxCell id="127" style="edgeStyle=none;html=1;entryX=0;entryY=1;entryDx=0;entryDy=0;endArrow=none;endFill=0;" edge="1" parent="1" source="102" target="107">
                    <mxGeometry relative="1" as="geometry"/>
                </mxCell>
                <mxCell id="102" value="A:5" style="ellipse;whiteSpace=wrap;html=1;aspect=fixed;strokeColor=default;strokeWidth=1;" vertex="1" parent="1">
                    <mxGeometry x="235" y="1150" width="40" height="40" as="geometry"/>
                </mxCell>
                <mxCell id="120" style="edgeStyle=none;html=1;entryX=0;entryY=1;entryDx=0;entryDy=0;endArrow=none;endFill=0;" edge="1" parent="1" source="103" target="105">
                    <mxGeometry relative="1" as="geometry"/>
                </mxCell>
                <mxCell id="103" value="B:2" style="ellipse;whiteSpace=wrap;html=1;aspect=fixed;strokeColor=default;strokeWidth=1;" vertex="1" parent="1">
                    <mxGeometry x="295" y="1260" width="40" height="40" as="geometry"/>
                </mxCell>
                <mxCell id="121" style="edgeStyle=none;html=1;entryX=1;entryY=1;entryDx=0;entryDy=0;endArrow=none;endFill=0;" edge="1" parent="1" source="104" target="105">
                    <mxGeometry relative="1" as="geometry"/>
                </mxCell>
                <mxCell id="104" value="E:2" style="ellipse;whiteSpace=wrap;html=1;aspect=fixed;strokeColor=default;strokeWidth=1;" vertex="1" parent="1">
                    <mxGeometry x="355" y="1260" width="40" height="40" as="geometry"/>
                </mxCell>
                <mxCell id="124" style="edgeStyle=none;html=1;entryX=0;entryY=1;entryDx=0;entryDy=0;endArrow=none;endFill=0;" edge="1" parent="1" source="105" target="106">
                    <mxGeometry relative="1" as="geometry"/>
                </mxCell>
                <mxCell id="105" value="4" style="ellipse;whiteSpace=wrap;html=1;aspect=fixed;strokeColor=default;strokeWidth=1;" vertex="1" parent="1">
                    <mxGeometry x="325" y="1200" width="40" height="40" as="geometry"/>
                </mxCell>
                <mxCell id="126" style="edgeStyle=none;html=1;entryX=1;entryY=1;entryDx=0;entryDy=0;endArrow=none;endFill=0;" edge="1" parent="1" source="106" target="107">
                    <mxGeometry relative="1" as="geometry"/>
                </mxCell>
                <mxCell id="106" value="6" style="ellipse;whiteSpace=wrap;html=1;aspect=fixed;strokeColor=default;strokeWidth=1;" vertex="1" parent="1">
                    <mxGeometry x="385" y="1150" width="40" height="40" as="geometry"/>
                </mxCell>
                <mxCell id="107" value="11" style="ellipse;whiteSpace=wrap;html=1;aspect=fixed;strokeColor=default;strokeWidth=1;" vertex="1" parent="1">
                    <mxGeometry x="315" y="1100" width="40" height="40" as="geometry"/>
                </mxCell>
                <mxCell id="108" style="edgeStyle=none;html=1;entryX=0;entryY=1;entryDx=0;entryDy=0;endArrow=none;endFill=0;" edge="1" parent="1" source="78" target="80">
                    <mxGeometry relative="1" as="geometry"/>
                </mxCell>
                <mxCell id="109" style="edgeStyle=none;html=1;entryX=1;entryY=1;entryDx=0;entryDy=0;endArrow=none;endFill=0;" edge="1" parent="1" source="79" target="80">
                    <mxGeometry relative="1" as="geometry"/>
                </mxCell>
                <mxCell id="128" value="" style="rounded=0;whiteSpace=wrap;html=1;fillColor=none;" vertex="1" parent="1">
                    <mxGeometry x="45" y="750" width="310" height="120" as="geometry"/>
                </mxCell>
                <mxCell id="129" value="" style="rounded=0;whiteSpace=wrap;html=1;fillColor=none;" vertex="1" parent="1">
                    <mxGeometry x="385" y="750" width="310" height="120" as="geometry"/>
                </mxCell>
                <mxCell id="130" value="" style="rounded=0;whiteSpace=wrap;html=1;fillColor=none;" vertex="1" parent="1">
                    <mxGeometry x="45" y="890" width="310" height="180" as="geometry"/>
                </mxCell>
                <mxCell id="131" value="" style="rounded=0;whiteSpace=wrap;html=1;fillColor=none;" vertex="1" parent="1">
                    <mxGeometry x="385" y="890" width="310" height="180" as="geometry"/>
                </mxCell>
                <mxCell id="132" value="" style="rounded=0;whiteSpace=wrap;html=1;fillColor=none;" vertex="1" parent="1">
                    <mxGeometry x="220" y="1090" width="310" height="220" as="geometry"/>
                </mxCell>
                <mxCell id="133" value="1" style="text;html=1;align=center;verticalAlign=middle;whiteSpace=wrap;rounded=0;fontSize=20;" vertex="1" parent="1">
                    <mxGeometry x="45" y="840" width="60" height="30" as="geometry"/>
                </mxCell>
                <mxCell id="134" value="2&lt;span style=&quot;font-family: monospace; font-size: 0px; text-align: start; text-wrap-mode: nowrap;&quot;&gt;%3CmxGraphModel%3E%3Croot%3E%3CmxCell%20id%3D%220%22%2F%3E%3CmxCell%20id%3D%221%22%20parent%3D%220%22%2F%3E%3CmxCell%20id%3D%222%22%20value%3D%221%22%20style%3D%22text%3Bhtml%3D1%3Balign%3Dcenter%3BverticalAlign%3Dmiddle%3BwhiteSpace%3Dwrap%3Brounded%3D0%3BfontSize%3D20%3B%22%20vertex%3D%221%22%20parent%3D%221%22%3E%3CmxGeometry%20x%3D%2245%22%20y%3D%22850%22%20width%3D%2260%22%20height%3D%2230%22%20as%3D%22geometry%22%2F%3E%3C%2FmxCell%3E%3C%2Froot%3E%3C%2FmxGraphModel%3E&lt;/span&gt;" style="text;html=1;align=center;verticalAlign=middle;whiteSpace=wrap;rounded=0;fontSize=20;" vertex="1" parent="1">
                    <mxGeometry x="385" y="840" width="60" height="30" as="geometry"/>
                </mxCell>
                <mxCell id="135" value="3" style="text;html=1;align=center;verticalAlign=middle;whiteSpace=wrap;rounded=0;fontSize=20;" vertex="1" parent="1">
                    <mxGeometry x="45" y="1040" width="60" height="30" as="geometry"/>
                </mxCell>
                <mxCell id="136" value="4" style="text;html=1;align=center;verticalAlign=middle;whiteSpace=wrap;rounded=0;fontSize=20;" vertex="1" parent="1">
                    <mxGeometry x="385" y="1040" width="60" height="30" as="geometry"/>
                </mxCell>
                <mxCell id="137" value="5" style="text;html=1;align=center;verticalAlign=middle;whiteSpace=wrap;rounded=0;fontSize=20;" vertex="1" parent="1">
                    <mxGeometry x="220" y="1280" width="60" height="30" as="geometry"/>
                </mxCell>
            </root>
        </mxGraphModel>
    </diagram>
</mxfile>